<mxfile host="app.diagrams.net" modified="2020-10-05T22:27:28.762Z" agent="5.0 (iPad; CPU OS 14_0_1 like Mac OS X) AppleWebKit/605.1.15 (KHTML, like Gecko) Version/14.0 Mobile/15E148 Safari/604.1" etag="-8yvRzp6KWLk6sKyx9n9" version="13.7.7" type="github">
  <diagram id="sakjp0sp7pnHs2Q8T6t4" name="Page-1">
    <mxGraphModel dx="696" dy="552" grid="1" gridSize="10" guides="1" tooltips="1" connect="1" arrows="1" fold="1" page="1" pageScale="1" pageWidth="1100" pageHeight="850" math="0" shadow="0">
      <root>
        <mxCell id="0" />
        <mxCell id="1" parent="0" />
      </root>
    </mxGraphModel>
  </diagram>
</mxfile>
